<mxfile host="app.diagrams.net" agent="Mozilla/5.0 (Windows NT 10.0; Win64; x64) AppleWebKit/537.36 (KHTML, like Gecko) Chrome/128.0.0.0 Safari/537.36 Edg/128.0.0.0" version="24.7.6">
  <diagram name="Page-1" id="2YBvvXClWsGukQMizWep">
    <mxGraphModel dx="1848" dy="540" grid="0" gridSize="10" guides="1" tooltips="1" connect="1" arrows="1" fold="1" page="1" pageScale="1" pageWidth="850" pageHeight="1100" math="0" shadow="0">
      <root>
        <mxCell id="0" />
        <mxCell id="1" parent="0" />
        <mxCell id="aM9ryv3xv72pqoxQDRHE-1" value="Controller" style="shape=umlLifeline;perimeter=lifelinePerimeter;whiteSpace=wrap;html=1;container=0;dropTarget=0;collapsible=0;recursiveResize=0;outlineConnect=0;portConstraint=eastwest;newEdgeStyle={&quot;edgeStyle&quot;:&quot;elbowEdgeStyle&quot;,&quot;elbow&quot;:&quot;vertical&quot;,&quot;curved&quot;:0,&quot;rounded&quot;:0};" parent="1" vertex="1">
          <mxGeometry y="40" width="100" height="1060" as="geometry" />
        </mxCell>
        <mxCell id="aM9ryv3xv72pqoxQDRHE-2" value="" style="html=1;points=[];perimeter=orthogonalPerimeter;outlineConnect=0;targetShapes=umlLifeline;portConstraint=eastwest;newEdgeStyle={&quot;edgeStyle&quot;:&quot;elbowEdgeStyle&quot;,&quot;elbow&quot;:&quot;vertical&quot;,&quot;curved&quot;:0,&quot;rounded&quot;:0};" parent="aM9ryv3xv72pqoxQDRHE-1" vertex="1">
          <mxGeometry x="45" y="70" width="10" height="370" as="geometry" />
        </mxCell>
        <mxCell id="aM9ryv3xv72pqoxQDRHE-3" value="1. Get all project of user Request" style="html=1;verticalAlign=bottom;startArrow=oval;endArrow=block;startSize=8;edgeStyle=elbowEdgeStyle;elbow=vertical;curved=0;rounded=0;" parent="1" target="aM9ryv3xv72pqoxQDRHE-2" edge="1" source="yNB_V_g9oAJOr10vJFmL-15">
          <mxGeometry relative="1" as="geometry">
            <mxPoint x="-380" y="110" as="sourcePoint" />
            <mxPoint x="-210" y="110" as="targetPoint" />
            <Array as="points">
              <mxPoint x="-50" y="160" />
            </Array>
          </mxGeometry>
        </mxCell>
        <mxCell id="aM9ryv3xv72pqoxQDRHE-5" value="Service" style="shape=umlLifeline;perimeter=lifelinePerimeter;whiteSpace=wrap;html=1;container=0;dropTarget=0;collapsible=0;recursiveResize=0;outlineConnect=0;portConstraint=eastwest;newEdgeStyle={&quot;edgeStyle&quot;:&quot;elbowEdgeStyle&quot;,&quot;elbow&quot;:&quot;vertical&quot;,&quot;curved&quot;:0,&quot;rounded&quot;:0};" parent="1" vertex="1">
          <mxGeometry x="280" y="40" width="100" height="1060" as="geometry" />
        </mxCell>
        <mxCell id="aM9ryv3xv72pqoxQDRHE-6" value="" style="html=1;points=[];perimeter=orthogonalPerimeter;outlineConnect=0;targetShapes=umlLifeline;portConstraint=eastwest;newEdgeStyle={&quot;edgeStyle&quot;:&quot;elbowEdgeStyle&quot;,&quot;elbow&quot;:&quot;vertical&quot;,&quot;curved&quot;:0,&quot;rounded&quot;:0};" parent="aM9ryv3xv72pqoxQDRHE-5" vertex="1">
          <mxGeometry x="45" y="70" width="10" height="370" as="geometry" />
        </mxCell>
        <mxCell id="aM9ryv3xv72pqoxQDRHE-7" value="Call GetAllProjectOfUser Function" style="html=1;verticalAlign=bottom;endArrow=block;edgeStyle=elbowEdgeStyle;elbow=vertical;curved=0;rounded=0;" parent="1" edge="1">
          <mxGeometry x="0.0013" relative="1" as="geometry">
            <mxPoint x="55" y="150" as="sourcePoint" />
            <Array as="points">
              <mxPoint x="180" y="150" />
            </Array>
            <mxPoint x="325" y="150" as="targetPoint" />
            <mxPoint as="offset" />
          </mxGeometry>
        </mxCell>
        <mxCell id="aM9ryv3xv72pqoxQDRHE-8" value="Not Found" style="html=1;verticalAlign=bottom;endArrow=open;dashed=1;endSize=8;edgeStyle=elbowEdgeStyle;elbow=vertical;curved=0;rounded=0;" parent="1" source="aM9ryv3xv72pqoxQDRHE-6" target="aM9ryv3xv72pqoxQDRHE-2" edge="1">
          <mxGeometry relative="1" as="geometry">
            <mxPoint x="195" y="205" as="targetPoint" />
            <Array as="points">
              <mxPoint x="190" y="240" />
            </Array>
          </mxGeometry>
        </mxCell>
        <mxCell id="yNB_V_g9oAJOr10vJFmL-11" value="Database" style="shape=umlLifeline;perimeter=lifelinePerimeter;whiteSpace=wrap;html=1;container=0;dropTarget=0;collapsible=0;recursiveResize=0;outlineConnect=0;portConstraint=eastwest;newEdgeStyle={&quot;edgeStyle&quot;:&quot;elbowEdgeStyle&quot;,&quot;elbow&quot;:&quot;vertical&quot;,&quot;curved&quot;:0,&quot;rounded&quot;:0};" vertex="1" parent="1">
          <mxGeometry x="560" y="40" width="100" height="1060" as="geometry" />
        </mxCell>
        <mxCell id="yNB_V_g9oAJOr10vJFmL-12" value="" style="html=1;points=[];perimeter=orthogonalPerimeter;outlineConnect=0;targetShapes=umlLifeline;portConstraint=eastwest;newEdgeStyle={&quot;edgeStyle&quot;:&quot;elbowEdgeStyle&quot;,&quot;elbow&quot;:&quot;vertical&quot;,&quot;curved&quot;:0,&quot;rounded&quot;:0};" vertex="1" parent="yNB_V_g9oAJOr10vJFmL-11">
          <mxGeometry x="45" y="70" width="10" height="370" as="geometry" />
        </mxCell>
        <mxCell id="yNB_V_g9oAJOr10vJFmL-13" value="Get all Project of User" style="html=1;verticalAlign=bottom;endArrow=block;edgeStyle=elbowEdgeStyle;elbow=vertical;curved=0;rounded=0;" edge="1" parent="1">
          <mxGeometry x="-0.0013" relative="1" as="geometry">
            <mxPoint x="335" y="170.00241379310347" as="sourcePoint" />
            <Array as="points" />
            <mxPoint x="605" y="170.00241379310347" as="targetPoint" />
            <mxPoint as="offset" />
          </mxGeometry>
        </mxCell>
        <mxCell id="yNB_V_g9oAJOr10vJFmL-14" value="Not Found" style="html=1;verticalAlign=bottom;endArrow=open;dashed=1;endSize=8;edgeStyle=elbowEdgeStyle;elbow=vertical;curved=0;rounded=0;" edge="1" parent="1">
          <mxGeometry relative="1" as="geometry">
            <mxPoint x="335" y="210" as="targetPoint" />
            <Array as="points">
              <mxPoint x="430" y="210" />
              <mxPoint x="465" y="190" />
            </Array>
            <mxPoint x="605" y="210" as="sourcePoint" />
          </mxGeometry>
        </mxCell>
        <mxCell id="yNB_V_g9oAJOr10vJFmL-18" value="" style="group" vertex="1" connectable="0" parent="1">
          <mxGeometry x="-210" y="10" width="110" height="1090" as="geometry" />
        </mxCell>
        <mxCell id="yNB_V_g9oAJOr10vJFmL-15" value="" style="shape=umlLifeline;perimeter=lifelinePerimeter;whiteSpace=wrap;html=1;container=1;dropTarget=0;collapsible=0;recursiveResize=0;outlineConnect=0;portConstraint=eastwest;newEdgeStyle={&quot;curved&quot;:0,&quot;rounded&quot;:0};participant=umlActor;size=40;" vertex="1" parent="yNB_V_g9oAJOr10vJFmL-18">
          <mxGeometry x="40" y="64.11764705882352" width="20" height="1025.8823529411764" as="geometry" />
        </mxCell>
        <mxCell id="yNB_V_g9oAJOr10vJFmL-16" value="Sales Employee" style="text;html=1;align=center;verticalAlign=middle;resizable=0;points=[];autosize=1;strokeColor=none;fillColor=none;" vertex="1" parent="yNB_V_g9oAJOr10vJFmL-18">
          <mxGeometry x="-5" y="34.12" width="110" height="30" as="geometry" />
        </mxCell>
        <mxCell id="yNB_V_g9oAJOr10vJFmL-19" value="Alternative" style="shape=umlFrame;whiteSpace=wrap;html=1;pointerEvents=0;" vertex="1" parent="1">
          <mxGeometry x="-340" y="180" width="1070" height="360" as="geometry" />
        </mxCell>
        <mxCell id="yNB_V_g9oAJOr10vJFmL-20" value="" style="endArrow=none;dashed=1;html=1;rounded=0;entryX=0.999;entryY=0.426;entryDx=0;entryDy=0;entryPerimeter=0;" edge="1" parent="1">
          <mxGeometry width="50" height="50" relative="1" as="geometry">
            <mxPoint x="-340" y="290" as="sourcePoint" />
            <mxPoint x="728.9299999999998" y="290.5799999999999" as="targetPoint" />
          </mxGeometry>
        </mxCell>
        <mxCell id="yNB_V_g9oAJOr10vJFmL-21" value="[Project Not Found]" style="text;html=1;align=center;verticalAlign=middle;resizable=0;points=[];autosize=1;strokeColor=none;fillColor=none;" vertex="1" parent="1">
          <mxGeometry x="-330" y="238" width="130" height="30" as="geometry" />
        </mxCell>
        <mxCell id="yNB_V_g9oAJOr10vJFmL-22" value="[Project Found]" style="text;html=1;align=center;verticalAlign=middle;resizable=0;points=[];autosize=1;strokeColor=none;fillColor=none;" vertex="1" parent="1">
          <mxGeometry x="-325" y="320" width="100" height="30" as="geometry" />
        </mxCell>
        <mxCell id="yNB_V_g9oAJOr10vJFmL-23" value="Not Found" style="html=1;verticalAlign=bottom;endArrow=open;dashed=1;endSize=8;edgeStyle=elbowEdgeStyle;elbow=vertical;curved=0;rounded=0;" edge="1" parent="1" source="aM9ryv3xv72pqoxQDRHE-2" target="yNB_V_g9oAJOr10vJFmL-15">
          <mxGeometry relative="1" as="geometry">
            <mxPoint x="-155" y="260" as="targetPoint" />
            <Array as="points">
              <mxPoint x="-30" y="260" />
            </Array>
            <mxPoint x="105" y="260" as="sourcePoint" />
          </mxGeometry>
        </mxCell>
        <mxCell id="yNB_V_g9oAJOr10vJFmL-24" value="Get data Successfully" style="html=1;verticalAlign=bottom;endArrow=open;dashed=1;endSize=8;edgeStyle=elbowEdgeStyle;elbow=vertical;curved=0;rounded=0;" edge="1" parent="1" source="yNB_V_g9oAJOr10vJFmL-12" target="aM9ryv3xv72pqoxQDRHE-6">
          <mxGeometry x="0.0013" relative="1" as="geometry">
            <mxPoint x="330" y="320" as="targetPoint" />
            <Array as="points">
              <mxPoint x="425" y="320" />
              <mxPoint x="460" y="300" />
            </Array>
            <mxPoint x="600" y="320" as="sourcePoint" />
            <mxPoint as="offset" />
          </mxGeometry>
        </mxCell>
        <mxCell id="yNB_V_g9oAJOr10vJFmL-25" value="Get data Successfully" style="html=1;verticalAlign=bottom;endArrow=open;dashed=1;endSize=8;edgeStyle=elbowEdgeStyle;elbow=vertical;curved=0;rounded=0;" edge="1" parent="1">
          <mxGeometry relative="1" as="geometry">
            <mxPoint x="55" y="450.00000000000006" as="targetPoint" />
            <Array as="points">
              <mxPoint x="75" y="450" />
              <mxPoint x="180" y="429.66" />
            </Array>
            <mxPoint x="325" y="450.00000000000006" as="sourcePoint" />
            <mxPoint as="offset" />
          </mxGeometry>
        </mxCell>
        <mxCell id="yNB_V_g9oAJOr10vJFmL-29" value="Get data Successfully" style="html=1;verticalAlign=bottom;endArrow=open;dashed=1;endSize=8;edgeStyle=elbowEdgeStyle;elbow=vertical;curved=0;rounded=0;" edge="1" parent="1">
          <mxGeometry relative="1" as="geometry">
            <mxPoint x="-160" y="470" as="targetPoint" />
            <Array as="points">
              <mxPoint x="-30" y="470" />
            </Array>
            <mxPoint x="45" y="470" as="sourcePoint" />
          </mxGeometry>
        </mxCell>
        <mxCell id="yNB_V_g9oAJOr10vJFmL-31" value="Convert DTO Data" style="html=1;align=left;spacingLeft=2;endArrow=block;rounded=0;edgeStyle=orthogonalEdgeStyle;curved=0;rounded=0;" edge="1" parent="1">
          <mxGeometry relative="1" as="geometry">
            <mxPoint x="335" y="340" as="sourcePoint" />
            <Array as="points">
              <mxPoint x="390" y="340" />
              <mxPoint x="390" y="410" />
            </Array>
            <mxPoint x="335" y="410" as="targetPoint" />
          </mxGeometry>
        </mxCell>
      </root>
    </mxGraphModel>
  </diagram>
</mxfile>
